<svg xmlns="http://www.w3.org/2000/svg" viewBox="0 0 32 32" aria-hidden="true">
  <path fill="#fff" d="M19.11 17.53c-.27-.14-1.6-.79-1.85-.88-.25-.09-.43-.14-.61.14-.18.27-.7.88-.86 1.06-.16.18-.32.21-.59.07-.27-.14-1.13-.42-2.16-1.33-.8-.71-1.34-1.59-1.5-1.86-.16-.27-.02-.42.12-.55.12-.12.27-.32.41-.48.14-.16.18-.27.27-.45.09-.18.05-.34-.02-.48-.07-.14-.61-1.48-.84-2.03-.22-.53-.45-.46-.61-.47l-.52-.01c-.18 0-.48.07-.73.34-.25.27-.95.93-.95 2.27 0 1.34.98 2.64 1.12 2.82.14.18 1.93 2.95 4.68 4.13.65.28 1.16.44 1.56.56.65.21 1.24.18 1.71.11.52-.08 1.6-.65 1.83-1.28.23-.62.23-1.16.16-1.28-.07-.11-.25-.18-.52-.32z"/>
  <path fill="#fff" d="M16.02 2.67c-7.33 0-13.29 5.96-13.29 13.29 0 2.32.61 4.58 1.77 6.57L3 29.33l6.98-1.83c1.91 1.04 4.06 1.58 6.04 1.58h.01c7.33 0 13.29-5.96 13.29-13.29 0-3.55-1.38-6.88-3.89-9.39-2.51-2.51-5.84-3.89-9.41-3.89zm0 24.05h-.01c-1.78 0-3.52-.48-5.04-1.38l-.36-.21-4.14 1.09 1.11-4.03-.23-.41c-1.1-1.57-1.69-3.42-1.69-5.32 0-5.25 4.28-9.53 9.55-9.53 2.55 0 4.95.99 6.75 2.79 1.8 1.8 2.79 4.2 2.79 6.75 0 5.27-4.28 9.55-9.53 9.55z"/>
</svg>
